PathFileType	4	(X/Y/Z)	C:/Users/opensim2020/Desktop/walking_exp_matlab/subject06_walking11_run_cyclic.trc	
DataRate	CameraRate	NumFrames	NumMarkers	Units	OrigDataRate	OrigDataStartFrame	OrigNumFrames	
100.00	100.00	7	46	mm	100.00	270	66	
Frame#	Time	LKNE			RKNE			RFRM			RWRA			RWRB			RELB			RUPA			RSHO			LWRA			RFIN			RFHD			CLAV			RASI			RTHI			LSHO			LTHI			RBHD			C7			LTIB			LANK			LTOE			LBHD			RTIB			RBAK			LHEE			RANK			STRN			RHEE			RTOE			T10			LUPA			LFHD			LPSI			RPSI			LASI			LFRM			LWRB			LFIN			LELB			*39			*40			*41			*42			*43			*44			*45			
		X1	Y1	Z1	X2	Y2	Z2	X3	Y3	Z3	X4	Y4	Z4	X5	Y5	Z5	X6	Y6	Z6	X7	Y7	Z7	X8	Y8	Z8	X9	Y9	Z9	X10	Y10	Z10	X11	Y11	Z11	X12	Y12	Z12	X13	Y13	Z13	X14	Y14	Z14	X15	Y15	Z15	X16	Y16	Z16	X17	Y17	Z17	X18	Y18	Z18	X19	Y19	Z19	X20	Y20	Z20	X21	Y21	Z21	X22	Y22	Z22	X23	Y23	Z23	X24	Y24	Z24	X25	Y25	Z25	X26	Y26	Z26	X27	Y27	Z27	X28	Y28	Z28	X29	Y29	Z29	X30	Y30	Z30	X31	Y31	Z31	X32	Y32	Z32	X33	Y33	Z33	X34	Y34	Z34	X35	Y35	Z35	X36	Y36	Z36	X37	Y37	Z37	X38	Y38	Z38	X39	Y39	Z39	X40	Y40	Z40	X41	Y41	Z41	X42	Y42	Z42	X43	Y43	Z43	X44	Y44	Z44	X45	Y45	Z45	X46	Y46	Z46	

56	0.550	56.65630	1448.96277	436.74826	303.80069	1515.86389	496.19116	465.55582	1386.21301	1075.65186	382.76788	1499.11414	1107.22107	406.86002	1502.06055	1044.81445	496.37369	1300.70459	1123.34753	463.95541	1323.06970	1222.20447	363.23267	1433.44153	1371.58472	39.51859	1541.82776	1169.79956	384.21713	1579.37036	1071.00305	285.96445	1512.35938	1625.88184	210.19263	1503.98853	1339.86560	309.14331	1471.95190	934.64685	346.89099	1474.03687	611.29675	49.13647	1455.37219	1390.14404	31.62109	1433.67371	597.01178	287.70984	1386.92810	1560.80566	202.40732	1395.73572	1421.40637	57.97059	1224.73364	366.72562	85.20736	1061.11865	325.78638	83.86138	1065.55151	181.52553	158.75618	1379.49670	1567.47400	275.48767	1445.17407	245.34201	250.75787	1304.21643	1256.34753	132.67081	1035.15039	357.69412	209.76668	1368.57996	81.33530	198.93840	1529.75085	1159.01892	171.52463	1316.57349	73.29510	182.02412	1512.50049	31.28572	177.83046	1333.46582	1101.92676	-66.13985	1404.99817	1231.25403	153.30939	1505.32581	1638.65979	99.00549	1335.63953	960.50476	268.97583	1324.46558	973.07117	92.65778	1488.74097	915.80682	-50.57820	1477.65869	1105.81458	34.43414	1556.64075	1100.68176	80.97411	1623.45410	1140.77795	-109.77389	1369.43750	1143.11133				218.48862	1403.48438	1663.30530															 
57	0.560	55.94724	1512.05115	436.65335	300.96115	1539.28650	486.48669	463.02454	1440.52637	1063.86084	377.79013	1550.19678	1099.06909	401.43750	1555.21899	1036.21545	496.34851	1355.24597	1108.77637	466.20096	1372.88867	1209.24780	364.61804	1475.73535	1364.78284	33.28543	1573.04736	1159.32861	376.09460	1630.69543	1063.11279	285.47665	1551.59705	1621.45923	208.77539	1542.50134	1334.94568	308.92868	1508.61841	925.69678	344.54498	1502.18726	604.76611	48.34340	1489.65942	1385.11353	29.31752	1487.53223	595.52313	289.04623	1426.45447	1555.46436	203.64230	1434.31580	1417.74646	54.00177	1291.11023	361.52695	79.48654	1128.32715	316.20663	75.03865	1139.13489	172.75937	160.27811	1417.03186	1562.33923	272.39545	1453.15771	239.57410	255.26901	1342.65710	1251.34888	127.10174	1100.39038	346.39352	206.87207	1368.20752	81.10207	196.87662	1567.92786	1153.35083	167.37894	1316.37378	74.15549	180.90051	1511.94214	31.04537	179.92155	1371.78906	1095.51306	-65.86481	1430.90930	1227.93237	152.96684	1542.34583	1634.34094	99.17220	1371.45593	955.04504	269.69687	1361.45520	967.55493	91.79478	1525.72229	910.24841	-55.70033	1503.36157	1099.79895	26.01457	1585.36890	1089.88892	71.38371	1655.52856	1126.36450	-109.63612	1394.23279	1140.88794				219.64597	1441.24280	1658.03430															 
58	0.570	55.96165	1575.49451	440.67850	299.42328	1559.67737	479.14908	458.80463	1495.95557	1055.82739	370.50180	1600.81445	1095.09485	391.00171	1606.78711	1030.69812	495.49390	1410.46289	1098.65881	466.24228	1422.20630	1200.79224	365.09714	1518.25256	1360.43152	27.72854	1603.21497	1151.83435	367.42914	1681.74084	1060.76709	284.91254	1590.93616	1618.52002	207.38641	1580.34949	1332.19775	308.46320	1545.63330	918.80811	342.87457	1529.22046	599.39850	48.34980	1522.75305	1382.52722	27.75306	1541.02551	597.13513	290.01694	1465.88721	1552.21680	204.83632	1472.46985	1415.39575	50.67986	1358.41370	357.48224	73.97060	1197.02344	305.76959	66.97400	1215.46692	163.36478	161.44611	1454.70239	1559.23889	269.89108	1459.42114	234.89355	260.20160	1380.89148	1248.18237	121.56630	1166.79321	333.80255	204.65703	1369.17444	81.17641	194.87163	1606.36279	1150.67517	165.48973	1316.64502	76.54163	180.19080	1511.26538	30.90767	182.12904	1410.30017	1093.01587	-64.50049	1456.60754	1228.96802	152.45038	1579.88745	1631.55701	99.79415	1407.96680	952.34503	269.76089	1398.75366	965.64508	90.51312	1562.45190	906.66644	-60.24645	1528.64551	1096.64343	17.58536	1613.33228	1082.35242	61.65404	1686.40088	1115.02197	-108.37769	1418.30481	1142.64075				220.52473	1479.58948	1654.83191															 
59	0.580	57.01290	1638.35120	448.37570	298.58423	1578.29053	472.87424	452.77524	1550.86719	1051.48804	362.10696	1650.57153	1096.11755	382.36545	1659.39722	1031.96887	494.13745	1465.18286	1092.32996	466.64209	1472.16919	1194.98132	364.79684	1560.67249	1358.38831	22.81927	1632.64746	1147.65747	356.70941	1732.03577	1065.08044	284.12915	1630.40271	1617.18420	205.77467	1618.37830	1331.51514	307.26157	1584.11633	914.87061	341.47653	1554.81677	594.51154	48.96304	1554.97815	1382.12964	26.33922	1593.53528	601.89038	290.67416	1505.18811	1551.31775	206.18999	1509.68164	1413.50940	48.08752	1426.23438	354.82541	69.16740	1267.06287	294.47430	60.13866	1294.15344	153.71179	162.27986	1492.52148	1558.47217	267.54025	1464.98608	232.30244	265.35394	1420.28809	1246.33801	116.44820	1234.44775	320.09616	203.70923	1369.82935	82.86938	192.53036	1645.29504	1149.73694	164.96049	1317.40918	80.54708	179.84984	1510.69751	30.85133	184.68060	1448.57031	1092.14038	-62.79719	1482.52466	1231.97729	151.89166	1617.86438	1630.29529	100.20366	1445.08569	952.20111	270.04636	1437.78638	965.01465	88.56874	1598.84448	905.31525	-64.17926	1553.71655	1096.14429	9.42567	1640.84448	1078.49829	52.03432	1716.21912	1107.95691	-106.37031	1442.15381	1147.40503				221.02657	1518.49438	1653.91199															 
60	0.590	58.30576	1700.02466	459.57742	298.00595	1596.06213	467.87848	447.08536	1605.08203	1051.88452	353.55286	1698.32080	1102.17676	372.91693	1710.90430	1038.74683	492.61053	1519.36267	1088.55139	467.05789	1522.12793	1191.25220	364.69901	1603.39917	1358.70715	18.17376	1661.34363	1146.86292	344.82782	1780.39209	1075.56653	283.05527	1669.95435	1617.42188	204.41159	1656.08813	1332.37354	305.64383	1623.78430	913.32678	339.93692	1579.24658	590.86371	50.01643	1586.78748	1383.70386	25.49095	1645.08386	609.31445	291.17163	1544.34692	1552.67261	207.68349	1546.55554	1412.90784	46.32582	1493.96973	353.59473	65.26894	1338.31738	282.54163	54.49071	1375.53906	144.35524	162.90398	1530.46191	1559.85242	267.63751	1472.33667	232.81273	270.31198	1460.86682	1246.24219	112.46282	1303.36536	305.51486	204.49637	1371.29443	86.39706	189.99072	1684.20081	1150.86340	165.58754	1318.98474	86.14753	179.77766	1510.19421	30.73322	187.25664	1486.70642	1092.10693	-60.88208	1509.01453	1236.58496	150.96458	1656.36316	1630.87817	100.99907	1482.80298	953.73541	270.51785	1477.69641	965.64185	86.45634	1635.56213	906.33154	-67.59463	1578.51904	1098.38855	1.78557	1668.11487	1078.18225	43.11225	1745.24768	1105.18994	-104.43855	1466.45129	1153.56714				221.35329	1557.84192	1655.19092															 
61	0.600	59.62206	1759.83704	473.70236	297.64188	1613.66809	465.02042	441.70688	1657.48962	1056.24951	345.02411	1744.05762	1112.19104	364.40500	1761.81946	1049.88086	490.65298	1572.66516	1087.30176	467.63116	1572.36572	1189.95288	364.67520	1645.67578	1361.04199	13.84636	1689.70300	1149.05127	332.57022	1826.86157	1091.15210	282.43387	1709.74658	1619.63794	202.52846	1694.70789	1335.02930	304.04926	1663.85864	913.61401	337.11859	1602.26575	588.93628	51.14655	1618.52478	1386.93909	25.58186	1695.24805	618.87573	291.69608	1583.69019	1556.05151	209.62389	1584.05640	1414.60449	45.40224	1561.34619	353.55585	62.77426	1410.62659	270.20203	51.65387	1458.49133	135.13242	163.37947	1568.45935	1563.13879	268.54611	1480.60437	235.85907	274.65558	1501.50464	1248.05383	109.57359	1373.55200	290.43329	206.79050	1373.86584	92.37469	187.49220	1723.02185	1153.83838	168.32532	1321.84338	94.65514	180.03789	1509.66772	30.74762	189.99796	1526.71545	1093.33081	-59.15646	1536.37805	1242.95654	150.28795	1694.81921	1632.81177	102.06240	1521.09961	956.91174	271.53461	1518.83826	967.64911	84.79149	1673.41028	909.90350	-70.68532	1603.48010	1103.58203	-5.11733	1695.37085	1080.95093	35.02180	1773.98364	1106.15466	-102.32700	1491.23987	1160.98706				221.38174	1597.29871	1658.21814															 
62	0.610	60.98764	1816.98047	489.84631	297.84039	1631.39099	465.32785	436.31442	1708.60437	1063.56995	337.29236	1788.55164	1125.38611	355.31110	1810.77197	1064.38391	488.99432	1625.23572	1089.10522	468.14133	1622.36633	1191.07324	364.46576	1687.99109	1365.42517	9.66043	1718.29688	1153.74744	321.07471	1871.80798	1109.93140	281.47147	1749.34180	1623.52893	200.82959	1733.11279	1339.45959	302.92017	1704.54272	915.88110	335.76620	1627.43494	590.60242	52.24664	1651.11536	1391.69910	26.77410	1743.55859	629.92914	292.09900	1622.98511	1561.10010	211.16437	1622.21204	1418.47388	45.34951	1627.70300	353.81332	61.98562	1483.98926	257.69318	50.84259	1542.65637	126.91756	163.58774	1606.65698	1568.03967	269.82574	1489.67944	241.33751	278.65433	1542.54822	1251.63171	108.41444	1445.12292	275.07657	209.99084	1378.37524	100.75272	185.17899	1761.90491	1158.47107	172.24176	1326.75195	105.59939	180.30971	1509.58032	30.52612	192.86099	1566.74109	1096.45654	-57.18085	1564.68335	1250.53577	149.61534	1733.43420	1636.54321	103.39022	1560.02881	961.87433	272.85190	1560.02380	970.91040	84.08398	1712.62024	915.55200	-73.09927	1628.77283	1111.13403	-11.15716	1722.90405	1086.14990	27.78365	1802.87769	1109.90503	-99.98985	1516.75122	1169.71313				221.25502	1636.82947	1662.96533															 
